# xmcd
#
# Track frame offsets:
#	150
#	16526
#	35313
#	52901
#	63168
#	85493
#	103526
#	125998
#	145251
#	158931
#
# Disc length: 2315 seconds
# Revision: 0
# Processed by: cddbd v1.5.2PL0 Copyright (c) Steve Scherf et al.
# Submitted via: dBpowerAMP V12.0
#
DISCID=7c09090a
DTITLE=Stan Webb - The Creeper
DYEAR=1978
DGENRE=Blues
TTITLE0=The Creeper
TTITLE1=Delilah
TTITLE2=Riding With The Devil
TTITLE3=Think
TTITLE4=Stop Knocking My Door
TTITLE5=Blue Vein
TTITLE6=It's Easy If You're Lonely
TTITLE7=The Guitar Playing Derelict
TTITLE8=Dr. Brown
TTITLE9=Red Haired Lady
EXTD=
EXTT0=
EXTT1=
EXTT2=
EXTT3=
EXTT4=
EXTT5=
EXTT6=
EXTT7=
EXTT8=
EXTT9=
PLAYORDER=
